# Blender v2.79 (sub 0) OBJ File: 'hunchback.blend'
# www.blender.org
mtllib hunchback.mtl
o Cube_Cube.001
v 0.669914 -4.000000 -0.739227
v 0.669914 -4.000000 0.749255
v -0.666278 -4.000000 -0.739227
v -0.666278 -4.000000 0.749255
v 1.000000 4.000000 -1.000000
v 1.000000 4.000000 1.000000
v -1.000000 4.000000 -1.000000
v -1.000000 4.000000 1.000000
v -0.000000 -4.000000 -0.739227
v 0.669914 -4.000000 0.000000
v 0.000000 -4.000000 0.749255
v -0.666278 -4.000000 0.000000
v -1.000000 2.307065 0.226332
v -1.000000 2.307065 2.226332
v -1.000000 4.000000 -0.000000
v -0.000000 4.000000 -1.000000
v 0.000000 4.000000 1.000000
v 1.000000 4.000000 -0.000000
v 1.000000 2.307065 0.226332
v 1.000000 2.307065 2.226332
v 0.000000 2.307065 2.226332
v 0.000000 2.307065 0.226332
v 1.000000 2.307065 1.226332
v -0.000000 4.000000 -0.000000
v -1.000000 2.307065 1.226332
v 0.000000 -4.000000 0.000000
vn 0.0000 -1.0000 0.0000
vn -1.0000 0.0000 0.0000
vn 0.0000 1.0000 0.0000
vn 0.9986 -0.0523 -0.0000
vn -0.0000 -0.5866 -0.8098
vn 0.0000 -0.2280 0.9737
vn 0.0000 0.5866 0.8098
vn 0.0000 0.1513 -0.9885
vn 1.0000 0.0000 -0.0000
vn -0.9986 -0.0528 0.0000
usemtl None
s off
f 11//1 12//1 26//1
f 25//2 8//2 15//2
f 17//3 18//3 24//3
f 23//4 2//4 10//4
f 16//5 19//5 22//5
f 21//6 2//6 20//6
f 21//7 6//7 17//7
f 14//7 17//7 8//7
f 4//6 21//6 14//6
f 22//8 1//8 9//8
f 3//8 22//8 9//8
f 7//5 22//5 13//5
f 19//4 10//4 1//4
f 18//9 19//9 5//9
f 6//9 23//9 18//9
f 24//3 5//3 16//3
f 15//3 16//3 7//3
f 8//3 24//3 15//3
f 13//2 15//2 7//2
f 12//10 13//10 3//10
f 4//10 25//10 12//10
f 26//1 3//1 9//1
f 10//1 9//1 1//1
f 2//1 26//1 10//1
f 11//1 4//1 12//1
f 25//2 14//2 8//2
f 17//3 6//3 18//3
f 23//4 20//4 2//4
f 16//5 5//5 19//5
f 21//6 11//6 2//6
f 21//7 20//7 6//7
f 14//7 21//7 17//7
f 4//6 11//6 21//6
f 22//8 19//8 1//8
f 3//8 13//8 22//8
f 7//5 16//5 22//5
f 19//4 23//4 10//4
f 18//9 23//9 19//9
f 6//9 20//9 23//9
f 24//3 18//3 5//3
f 15//3 24//3 16//3
f 8//3 17//3 24//3
f 13//2 25//2 15//2
f 12//10 25//10 13//10
f 4//10 14//10 25//10
f 26//1 12//1 3//1
f 10//1 26//1 9//1
f 2//1 11//1 26//1
